<svg width="292" height="148" viewBox="0 0 292 148" fill="none" xmlns="http://www.w3.org/2000/svg">
<path d="M1.76369 1.12053L22.8839 1.77212C25.9864 1.86783 29.0176 2.7254 31.7103 4.26922V4.26922C40.2308 9.15424 43.5962 19.7469 39.4576 28.6539L35.8325 36.4556C33.0361 42.4739 33.5224 49.506 37.1207 55.0822V55.0822C42.8294 63.9287 54.568 66.5797 63.5245 61.045L67.8667 58.3617C75.334 53.7472 84.6976 53.4735 92.4216 57.644L100.863 62.2017C105.554 64.7348 109.708 68.1561 113.094 72.2751L122.675 83.932C126.644 88.7607 128.936 94.748 129.208 100.993L129.353 104.339C129.776 114.079 136.078 122.585 145.273 125.826V125.826C156.117 129.649 168.145 125.202 173.895 115.245L178.442 107.37L179.115 105.977C187.054 89.5337 207.831 84.1125 222.792 94.5798V94.5798C227.441 97.8322 231.058 102.351 233.215 107.598L235.744 113.753C243.173 131.831 260.058 144.262 279.527 145.987L290.441 146.954" stroke="#8E8C8C" stroke-width="2" stroke-linecap="round" stroke-dasharray="4 6"/>
</svg>
