<svg width="282" height="220" viewBox="0 0 282 220" fill="none" xmlns="http://www.w3.org/2000/svg">
<path d="M1.76538 189.146L5.41788 165.398C6.24556 160.016 9.32098 155.24 13.8775 152.259V152.259C19.2731 148.73 26.0806 148.147 31.9977 150.707L33.2124 151.233C42.5332 155.266 47.7959 165.238 45.866 175.209L44.8549 180.433C43.766 186.059 44.4126 191.882 46.709 197.132L47.1669 198.179C50.6508 206.144 57.2306 212.344 65.3878 215.349L67.8956 216.273C76.0359 219.271 84.9544 219.411 93.1846 216.668L94.3232 216.289C111.032 210.72 122.429 195.24 122.784 177.631L123.108 161.557C123.224 155.813 125.081 150.24 128.432 145.574V145.574C139.213 130.566 161.235 129.703 173.157 143.822L178.533 150.189L189.102 161.247C197.077 169.591 209.98 170.783 219.348 164.041V164.041C227.354 158.28 230.828 148.076 228 138.626L225.136 129.054C223.495 123.567 223.578 117.708 225.376 112.27V112.27C230.086 98.0267 246.005 91.3477 260.35 86.9579C268.873 84.3498 276.713 78.1087 279 64.5C289 5.00069 255.5 1.00028 255.5 1.00028" stroke="#8E8C8C" stroke-width="2" stroke-linecap="round" stroke-dasharray="4 6"/>
</svg>
