<svg width="24" height="24" viewBox="0 0 24 24" fill="none" xmlns="http://www.w3.org/2000/svg">
<path fill-rule="evenodd" clip-rule="evenodd" d="M2 12C2 11.6319 2.29848 11.3334 2.66667 11.3334H21.3333C21.7015 11.3334 22 11.6319 22 12C22 12.3682 21.7015 12.6667 21.3333 12.6667H2.66667C2.29848 12.6667 2 12.3682 2 12Z" fill="#161616"/>
<path fill-rule="evenodd" clip-rule="evenodd" d="M12 22C11.6318 22 11.3333 21.7015 11.3333 21.3333L11.3333 2.66667C11.3333 2.29848 11.6318 2 12 2C12.3682 2 12.6666 2.29848 12.6666 2.66667L12.6666 21.3333C12.6666 21.7015 12.3682 22 12 22Z" fill="#161616"/>
</svg>
