<svg width="24" height="24" viewBox="0 0 24 24" fill="none" xmlns="http://www.w3.org/2000/svg">
<path d="M16.48 22H7.52001C5.58172 22 4 20.3907 4 18.4186V5.5814C4 3.60931 5.58172 2 7.52001 2H16.48C18.4183 2 20 3.60931 20 5.5814V18.4186C20 20.3907 18.4183 22 16.48 22ZM7.52001 3.39535C6.34058 3.39535 5.37143 4.3721 5.37143 5.5814V18.4186C5.37143 19.6186 6.33143 20.6047 7.52001 20.6047H16.48C17.6594 20.6047 18.6286 19.6279 18.6286 18.4186V5.5814C18.6286 4.3814 17.6686 3.39535 16.48 3.39535H7.52001Z" fill="#161616"/>
<path d="M17.9429 13.6279H6.05714C4.92343 13.6279 4 12.6884 4 11.5349V9.67444C4 8.52096 4.92343 7.58142 6.05714 7.58142H17.9429C19.0766 7.58142 20 8.52096 20 9.67444V11.5349C20 12.6884 19.0766 13.6279 17.9429 13.6279ZM6.05714 8.97677C5.68229 8.97677 5.37143 9.29305 5.37143 9.67444V11.5349C5.37143 11.9163 5.68229 12.2326 6.05714 12.2326H17.9429C18.3177 12.2326 18.6286 11.9163 18.6286 11.5349V9.67444C18.6286 9.29305 18.3177 8.97677 17.9429 8.97677H6.05714Z" fill="#161616"/>
<path d="M8.34285 18.279C8.04114 18.279 7.74856 18.1581 7.53828 17.9349C7.48342 17.8883 7.43772 17.8232 7.392 17.7581C7.35543 17.7023 7.31886 17.6279 7.29143 17.5628C7.25486 17.4883 7.23657 17.4139 7.21829 17.3395C7.20914 17.2651 7.2 17.1907 7.2 17.1162C7.2 17.0418 7.20914 16.9674 7.21829 16.893C7.23657 16.8186 7.25486 16.7441 7.29143 16.6697C7.31886 16.6046 7.35543 16.5302 7.392 16.4744C7.43772 16.4093 7.48342 16.3441 7.53828 16.2976C7.95885 15.8604 8.71772 15.8604 9.14743 16.2976C9.20229 16.3441 9.24799 16.4093 9.29371 16.4744C9.33028 16.5302 9.36685 16.6046 9.39428 16.6697C9.43085 16.7441 9.44914 16.8186 9.46742 16.893C9.47656 16.9674 9.48571 17.0418 9.48571 17.1162C9.48571 17.1907 9.47656 17.2651 9.46742 17.3395C9.44914 17.4139 9.43085 17.4883 9.39428 17.5628C9.36685 17.6279 9.33028 17.7023 9.29371 17.7581C9.24799 17.8232 9.20229 17.8883 9.14743 17.9349C8.93714 18.1581 8.64457 18.279 8.34285 18.279Z" fill="#161616"/>
<path d="M15.6572 18.279C15.3555 18.279 15.0629 18.1581 14.8526 17.9349C14.6332 17.7209 14.5143 17.4232 14.5143 17.1162C14.5143 16.8093 14.6332 16.5116 14.8526 16.2976C15.2732 15.8604 16.0412 15.8604 16.4617 16.2976C16.6812 16.5116 16.8 16.8093 16.8 17.1162C16.8 17.4232 16.6812 17.7209 16.4617 17.9349C16.2515 18.1581 15.9589 18.279 15.6572 18.279Z" fill="#161616"/>
<path d="M14.2857 6.18612H9.71428C9.33942 6.18612 9.02856 5.86984 9.02856 5.48845C9.02856 5.10705 9.33942 4.79077 9.71428 4.79077H14.2857C14.6606 4.79077 14.9714 5.10705 14.9714 5.48845C14.9714 5.86984 14.6606 6.18612 14.2857 6.18612Z" fill="#161616"/>
</svg>
