<svg width="24" height="24" viewBox="0 0 24 24" fill="none" xmlns="http://www.w3.org/2000/svg">
<path fill-rule="evenodd" clip-rule="evenodd" d="M12.3281 5.375C12.6733 5.375 12.9531 5.65482 12.9531 6V18C12.9531 18.3452 12.6733 18.625 12.3281 18.625C11.9829 18.625 11.7031 18.3452 11.7031 18V6C11.7031 5.65482 11.9829 5.375 12.3281 5.375Z" fill="#161616"/>
<path d="M12 22C17.5228 22 22 17.5228 22 12C22 6.47715 17.5228 2 12 2C6.47715 2 2 6.47715 2 12C2 17.5228 6.47715 22 12 22Z" stroke="#161616" stroke-width="1.5" stroke-linecap="round" stroke-linejoin="round"/>
<path d="M9 14.3298C9 15.6198 9.99 16.6598 11.22 16.6598H13.73C14.8 16.6598 15.67 15.7498 15.67 14.6298C15.67 13.4098 15.14 12.9798 14.35 12.6998L10.32 11.2998C9.53 11.0198 9 10.5898 9 9.36984C9 8.24984 9.87 7.33984 10.94 7.33984H13.45C14.68 7.33984 15.67 8.37984 15.67 9.66984" stroke="#161616" stroke-width="1.5" stroke-linecap="round" stroke-linejoin="round"/>
</svg>
