<svg width="24" height="24" viewBox="0 0 24 24" fill="none" xmlns="http://www.w3.org/2000/svg">
<path fill-rule="evenodd" clip-rule="evenodd" d="M13.8605 7.1163C12.6644 7.1163 11.7675 8.01324 11.7675 9.20932V12.9768H9.90701V13.907H11.7675V20.6047H13.1628V13.814H15.5808L15.7767 12.8837H13.1628V9.48839C13.1628 9.28782 13.2134 9.00925 13.4369 8.78576C13.6604 8.56226 13.939 8.51165 14.1396 8.51165H15.9535V7.1163H13.8605ZM10.3721 9.20932C10.3721 7.24261 11.8938 5.72095 13.8605 5.72095H16.3721C16.5727 5.72095 16.8513 5.77156 17.0748 5.99506C17.2983 6.21856 17.3489 6.49713 17.3489 6.69769V8.93025C17.3489 9.13081 17.2983 9.40938 17.0748 9.63288C16.8513 9.85638 16.5727 9.90699 16.3721 9.90699H14.5582V11.4884H16.2791C16.6428 11.4884 16.9152 11.6848 17.0689 11.9153C17.2088 12.1252 17.2558 12.3616 17.2558 12.5582V12.6308L16.8762 14.4343C16.8479 14.6342 16.7473 14.7764 16.6828 14.8508C16.6011 14.9451 16.5103 15.0098 16.4404 15.0518C16.3204 15.1237 16.1251 15.2093 15.907 15.2093H14.5582V22H10.3721V15.3023H9.4884C9.28784 15.3023 9.00927 15.2517 8.78577 15.0282C8.56227 14.8047 8.51166 14.5262 8.51166 14.3256V12.5582C8.51166 12.3576 8.56227 12.079 8.78577 11.8555C9.00927 11.632 9.28784 11.5814 9.4884 11.5814H10.3721V9.20932Z" fill="#161616"/>
<path fill-rule="evenodd" clip-rule="evenodd" d="M4.70263 4.70263C3.85098 5.55429 3.39535 6.95253 3.39535 9.2093V14.7907C3.39535 17.0475 3.85098 18.4457 4.70263 19.2974C5.55429 20.149 6.95253 20.6047 9.2093 20.6047H14.7907C17.0475 20.6047 18.4457 20.149 19.2974 19.2974C20.149 18.4457 20.6047 17.0475 20.6047 14.7907V9.2093C20.6047 6.95253 20.149 5.55429 19.2974 4.70263C18.4457 3.85098 17.0475 3.39535 14.7907 3.39535H9.2093C6.95253 3.39535 5.55429 3.85098 4.70263 4.70263ZM3.71597 3.71597C4.95734 2.47461 6.81491 2 9.2093 2H14.7907C17.1851 2 19.0427 2.47461 20.284 3.71597C21.5254 4.95734 22 6.81491 22 9.2093V14.7907C22 17.1851 21.5254 19.0427 20.284 20.284C19.0427 21.5254 17.1851 22 14.7907 22H9.2093C6.81491 22 4.95734 21.5254 3.71597 20.284C2.47461 19.0427 2 17.1851 2 14.7907V9.2093C2 6.81491 2.47461 4.95734 3.71597 3.71597Z" fill="#161616"/>
</svg>
