<svg width="24" height="24" viewBox="0 0 24 24" fill="none" xmlns="http://www.w3.org/2000/svg">
<path fill-rule="evenodd" clip-rule="evenodd" d="M3.71597 3.71597C4.95734 2.47461 6.81491 2 9.2093 2H14.7907C17.1851 2 19.0427 2.47461 20.284 3.71597C21.5254 4.95734 22 6.81491 22 9.2093V14.7907C22 17.1851 21.5254 19.0427 20.284 20.284C19.0427 21.5254 17.1851 22 14.7907 22H9.2093C6.81491 22 4.95734 21.5254 3.71597 20.284C2.47461 19.0427 2 17.1851 2 14.7907V9.2093C2 6.81491 2.47461 4.95734 3.71597 3.71597ZM4.70263 4.70263C3.85098 5.55429 3.39535 6.95253 3.39535 9.2093V14.7907C3.39535 17.0475 3.85098 18.4457 4.70263 19.2974C5.55429 20.149 6.95253 20.6047 9.2093 20.6047H14.7907C17.0475 20.6047 18.4457 20.149 19.2974 19.2974C20.149 18.4457 20.6047 17.0475 20.6047 14.7907V9.2093C20.6047 6.95253 20.149 5.55429 19.2974 4.70263C18.4457 3.85098 17.0475 3.39535 14.7907 3.39535H9.2093C6.95253 3.39535 5.55429 3.85098 4.70263 4.70263Z" fill="#161616"/>
<path fill-rule="evenodd" clip-rule="evenodd" d="M12 9.44186C10.5872 9.44186 9.44186 10.5872 9.44186 12C9.44186 13.4128 10.5872 14.5581 12 14.5581C13.4128 14.5581 14.5581 13.4128 14.5581 12C14.5581 10.5872 13.4128 9.44186 12 9.44186ZM8.04651 12C8.04651 9.81655 9.81655 8.04651 12 8.04651C14.1834 8.04651 15.9535 9.81655 15.9535 12C15.9535 14.1834 14.1834 15.9535 12 15.9535C9.81655 15.9535 8.04651 14.1834 8.04651 12Z" fill="#161616"/>
<path fill-rule="evenodd" clip-rule="evenodd" d="M16.3127 7.34881C16.3127 6.83506 16.7292 6.41858 17.2429 6.41858H17.2537C17.7674 6.41858 18.1839 6.83506 18.1839 7.34881C18.1839 7.86256 17.7674 8.27904 17.2537 8.27904H17.2429C16.7292 8.27904 16.3127 7.86256 16.3127 7.34881Z" fill="#161616"/>
</svg>
