<svg width="24" height="24" viewBox="0 0 24 24" fill="none" xmlns="http://www.w3.org/2000/svg">
<path fill-rule="evenodd" clip-rule="evenodd" d="M12 3.50035C8.38505 3.50035 5.45455 6.52312 5.45455 10.2519C5.45455 10.9083 5.68717 11.7339 6.12312 12.6796C6.55381 13.6139 7.15512 14.6065 7.82756 15.5803C9.17215 17.5275 10.7572 19.337 11.7005 20.3629C11.8681 20.5452 12.1319 20.5452 12.2995 20.3629C13.2428 19.337 14.8279 17.5275 16.1724 15.5803C16.8449 14.6065 17.4462 13.6139 17.8769 12.6796C18.3128 11.7339 18.5455 10.9083 18.5455 10.2519C18.5455 6.52312 15.615 3.50035 12 3.50035ZM4 10.2519C4 5.69451 7.58172 2 12 2C16.4183 2 20 5.69451 20 10.2519C20 11.2321 19.6652 12.2941 19.1905 13.3239C18.7105 14.3651 18.0578 15.436 17.3572 16.4507C15.9556 18.4805 14.3179 20.348 13.3549 21.3953C12.6137 22.2016 11.3863 22.2016 10.6451 21.3953C9.6821 20.348 8.04442 18.4805 6.64282 16.4507C5.94216 15.436 5.28951 14.3651 4.80952 13.3239C4.33479 12.2941 4 11.2321 4 10.2519ZM12 7.25121C10.7281 7.25121 9.69697 8.31478 9.69697 9.62676C9.69697 10.9387 10.7281 12.0023 12 12.0023C13.2719 12.0023 14.303 10.9387 14.303 9.62676C14.303 8.31478 13.2719 7.25121 12 7.25121ZM8.24242 9.62676C8.24242 7.48617 9.92475 5.75087 12 5.75087C14.0753 5.75087 15.7576 7.48617 15.7576 9.62676C15.7576 11.7674 14.0753 13.5027 12 13.5027C9.92475 13.5027 8.24242 11.7674 8.24242 9.62676Z" fill="#161616"/>
<path fill-rule="evenodd" clip-rule="evenodd" d="M12 7.12627C10.6612 7.12627 9.5758 8.24581 9.5758 9.62684C9.5758 11.0079 10.6612 12.1274 12 12.1274C13.3389 12.1274 14.4243 11.0079 14.4243 9.62684C14.4243 8.24581 13.3389 7.12627 12 7.12627ZM8.36368 9.62684C8.36368 7.5553 9.99173 5.87598 12 5.87598C14.0083 5.87598 15.6364 7.5553 15.6364 9.62684C15.6364 11.6984 14.0083 13.3777 12 13.3777C9.99173 13.3777 8.36368 11.6984 8.36368 9.62684Z" fill="#161616"/>
</svg>
