<svg width="46" height="60" viewBox="0 0 46 60" fill="none" xmlns="http://www.w3.org/2000/svg">
<path d="M45 21.3136C45 23.6944 43.8649 27.2481 41.9844 31.3543C40.1232 35.4184 37.5976 39.8863 34.9557 44.0424C32.3138 48.1986 29.5711 52.0188 27.2846 54.7895C26.1389 56.1778 25.1252 57.2814 24.3083 58.0289C23.8984 58.404 23.5605 58.6686 23.2978 58.8335C23.1393 58.9329 23.0433 58.9736 23 58.99C22.9567 58.9736 22.8607 58.9329 22.7022 58.8335C22.4395 58.6686 22.1016 58.404 21.6917 58.0289C20.8748 57.2814 19.8611 56.1778 18.7154 54.7895C16.4289 52.0188 13.6862 48.1986 11.0443 44.0424C8.40242 39.8863 5.87677 35.4184 4.01557 31.3543C2.13508 27.2481 1 23.6944 1 21.3136C1 11.4393 10.8169 1 23 1C35.1831 1 45 11.4393 45 21.3136Z" fill="white" stroke="#238890" stroke-width="2"/>
<path opacity="0.3" fill-rule="evenodd" clip-rule="evenodd" d="M24.7133 10.0835C31.6364 10.1247 37.9486 14.9241 39.9289 22.2478C41.7826 29.1033 37.9498 35.6501 32.8015 39.9955C27.1162 44.794 19.6933 48.7687 13.7809 44.3172C7.47235 39.5675 6.44553 30.014 8.98443 22.0637C11.3259 14.7316 17.6712 10.0416 24.7133 10.0835Z" fill="#8AF5FE"/>
<path opacity="0.5" fill-rule="evenodd" clip-rule="evenodd" d="M15.531 3.72805C17.5487 4.04747 19.1586 5.67838 19.383 7.82684C19.5931 9.83795 18.1591 11.5094 16.4474 12.503C14.5574 13.6001 12.2001 14.3883 10.69 12.8731C9.07873 11.2563 9.24008 8.52294 10.3643 6.39912C11.4012 4.44046 13.4786 3.40314 15.531 3.72805Z" fill="#DCFCFF"/>
<mask id="mask0_827_51918" style="mask-type:alpha" maskUnits="userSpaceOnUse" x="7" y="22" width="34" height="25">
<path fill-rule="evenodd" clip-rule="evenodd" d="M25.9541 33.8489C32.8772 33.8901 33.2762 28.7407 39.9289 22.2481C41.7826 29.1036 37.9498 35.6504 32.8015 39.9958C27.1162 44.7942 19.6933 48.769 13.7809 44.3175C7.47235 39.5678 6.44553 30.0143 8.98443 22.064C14.5803 27.7283 18.912 33.807 25.9541 33.8489Z" fill="#EED2B4"/>
</mask>
<g mask="url(#mask0_827_51918)">
<path d="M16.7584 20.2815L9.94214 45.807L37.6687 46.735L30.4417 30.8971L26.2686 19.8102C24.5557 15.2594 18.0129 15.5837 16.7584 20.2815Z" fill="#9CCED2"/>
</g>
<path d="M16.7924 19.2931L11.9934 38.4038L32.349 34.9524L30.4428 30.8954L26.3771 18.9052C24.7759 14.1833 18.0068 14.4572 16.7924 19.2931Z" fill="#9CCED2"/>
<path d="M21.4148 17.6955C19.3451 19.2209 18.1669 18.8036 17.1812 18.181C17.1145 18.1388 17.0832 18.0583 17.1025 17.9817L17.3582 16.9658C18.4082 12.793 24.2484 12.5558 25.6335 16.6297C25.6877 16.7891 25.4965 16.9357 25.346 16.8603C24.4577 16.4152 23.2253 16.361 21.4148 17.6955Z" fill="#FFFCF2"/>
<mask id="mask1_827_51918" style="mask-type:alpha" maskUnits="userSpaceOnUse" x="7" y="22" width="34" height="25">
<path fill-rule="evenodd" clip-rule="evenodd" d="M25.9541 33.8489C32.8772 33.8901 33.2762 28.7407 39.9289 22.2481C41.7826 29.1036 37.9498 35.6504 32.8015 39.9958C27.1162 44.7942 19.6933 48.769 13.7809 44.3175C7.47235 39.5678 6.44553 30.0143 8.98443 22.064C14.5803 27.7283 18.912 33.807 25.9541 33.8489Z" fill="#9CCED2"/>
</mask>
<g mask="url(#mask1_827_51918)">
<path d="M28.076 33.6253L22.8301 46.2039L34.957 46.361C38.5238 46.4072 40.9904 42.8107 39.6624 39.5L37.3314 33.6885C35.6651 29.5344 29.7988 29.4943 28.076 33.6253Z" fill="#52AAB1"/>
</g>
<path d="M29.4876 29.8431L27.7258 34.4557H32.6635C35.1012 34.4557 36.7467 31.9657 35.7909 29.7231C34.592 26.9102 30.5787 26.9866 29.4876 29.8431Z" fill="#73B7BC"/>
<path d="M32.435 31.07C31.0011 32.1129 29.8017 31.1437 29.0831 30.659C29.0261 30.6205 29.0008 30.5494 29.0216 30.4839L29.1221 30.1669C30.152 26.9183 34.6594 26.6844 36.02 29.809C36.0798 29.9463 35.8888 30.1302 35.7422 30.0998C34.9435 29.9347 33.6377 30.1954 32.435 31.07Z" fill="white"/>
<path d="M15.5911 30.457L15.6676 30.9358L15.8594 31.3688L15.4389 31.2212L14.9924 31.2042L15.3364 30.873L15.5911 30.457Z" fill="#52AAB1"/>
<path d="M25.0301 40.0898L25.1065 40.5686L25.2983 41.0016L24.8779 40.854L24.4314 40.837L24.7754 40.5058L25.0301 40.0898Z" fill="#52AAB1"/>
<path d="M19.1724 34.2916L19.2489 34.7704L19.4407 35.2034L19.0202 35.0558L18.5737 35.0388L18.9177 34.7076L19.1724 34.2916Z" fill="#52AAB1"/>
<path d="M22.5857 13.3977L23.0035 13.8692L23.5082 14.2188L22.9686 14.3218L22.4945 14.5827L22.6163 14.0082L22.5857 13.3977Z" fill="#52AAB1"/>
<path d="M17.4214 15.6195L17.6375 15.8634L17.8986 16.0443L17.6195 16.0975L17.3742 16.2325L17.4372 15.9353L17.4214 15.6195Z" fill="#52AAB1"/>
<path d="M25.7165 4.84151L25.7479 5.26026L25.8825 5.64665L25.5293 5.4926L25.1442 5.44978L25.4659 5.18507L25.7165 4.84151Z" fill="#52AAB1"/>
<path d="M36.7079 7.60323L36.7394 8.02198L36.8739 8.40837L36.5208 8.25432L36.1357 8.2115L36.4574 7.94679L36.7079 7.60323Z" fill="#52AAB1"/>
<path d="M34.0786 28.7424L34.1358 29.3469L34.3411 29.9021L33.8265 29.6881L33.2688 29.6356L33.7262 29.2451L34.0786 28.7424Z" fill="#0AA4B0"/>
<path d="M12.5014 22.3348L12.4963 22.6748L12.5769 22.9951L12.3028 22.8485L11.9948 22.7895L12.274 22.5962L12.5014 22.3348Z" fill="#52AAB1"/>
<path d="M16.4062 29.6981L16.4011 30.0381L16.4817 30.3584L16.2076 30.2117L15.8996 30.1528L16.1788 29.9595L16.4062 29.6981Z" fill="#A1E8EE"/>
<path d="M21.2883 36.1408L21.2832 36.4807L21.3638 36.801L21.0897 36.6544L20.7816 36.5954L21.0608 36.4022L21.2883 36.1408Z" fill="#A1E8EE"/>
</svg>
