<svg width="24" height="24" viewBox="0 0 24 24" fill="none" xmlns="http://www.w3.org/2000/svg">
<path fill-rule="evenodd" clip-rule="evenodd" d="M22 12C22 6.47715 17.5228 2 12 2C6.47715 2 2 6.47715 2 12C2 13.5984 2.37554 15.1111 3.04384 16.4529C3.14356 16.6531 3.16472 16.8575 3.1187 17.0295L2.56465 19.1003C2.18537 20.5178 3.4822 21.8146 4.89972 21.4354L6.97046 20.8813C7.14245 20.8353 7.34689 20.8564 7.54712 20.9562C8.88886 21.6245 10.4016 22 12 22C17.5228 22 22 17.5228 22 12ZM12 3.39535C16.7522 3.39535 20.6047 7.24778 20.6047 12C20.6047 16.7522 16.7522 20.6047 12 20.6047C10.6223 20.6047 9.32205 20.2814 8.16922 19.7072C7.70652 19.4767 7.15324 19.388 6.60979 19.5334L4.53906 20.0874C4.15875 20.1892 3.81082 19.8412 3.91258 19.4609L4.46663 17.3902C4.61204 16.8468 4.52329 16.2935 4.29283 15.8308C3.71863 14.6779 3.39535 13.3777 3.39535 12C3.39535 7.24778 7.24778 3.39535 12 3.39535Z" fill="#FFFFFF"/>
</svg>
