<svg width="24" height="24" viewBox="0 0 24 24" fill="none" xmlns="http://www.w3.org/2000/svg">
<path d="M15.6364 6.54545V17C15.6364 17.9644 15.2532 18.8893 14.5713 19.5713C13.8893 20.2532 12.9644 20.6364 12 20.6364C11.0356 20.6364 10.1107 20.2532 9.4287 19.5713C8.74675 18.8893 8.36364 17.9644 8.36364 17V5.63636C8.36364 5.0336 8.60308 4.45552 9.0293 4.0293C9.45552 3.60308 10.0336 3.36364 10.6364 3.36364C11.2391 3.36364 11.8172 3.60308 12.2434 4.0293C12.6696 4.45552 12.9091 5.0336 12.9091 5.63636V15.1818C12.9091 15.4229 12.8133 15.6542 12.6428 15.8246C12.4723 15.9951 12.2411 16.0909 12 16.0909C11.7589 16.0909 11.5277 15.9951 11.3572 15.8246C11.1867 15.6542 11.0909 15.4229 11.0909 15.1818V6.54545H9.72727V15.1818C9.72727 15.7846 9.96672 16.3627 10.3929 16.7889C10.8192 17.2151 11.3972 17.4545 12 17.4545C12.6028 17.4545 13.1808 17.2151 13.6071 16.7889C14.0333 16.3627 14.2727 15.7846 14.2727 15.1818V5.63636C14.2727 4.67194 13.8896 3.74702 13.2077 3.06507C12.5257 2.38312 11.6008 2 10.6364 2C9.67194 2 8.74702 2.38312 8.06507 3.06507C7.38312 3.74702 7 4.67194 7 5.63636V17C7 18.3261 7.52678 19.5979 8.46447 20.5355C9.40215 21.4732 10.6739 22 12 22C13.3261 22 14.5979 21.4732 15.5355 20.5355C16.4732 19.5979 17 18.3261 17 17V6.54545H15.6364Z" fill="#161616"/>
</svg>
