<svg width="24" height="24" viewBox="0 0 24 24" fill="none" xmlns="http://www.w3.org/2000/svg">
<path fill-rule="evenodd" clip-rule="evenodd" d="M14.4902 3.28848C16.2082 1.57051 18.9935 1.57051 20.7115 3.28848C22.4295 5.00646 22.4295 7.79184 20.7115 9.50982L11.9528 18.2685C11.4555 18.7659 11.1579 19.0635 10.8265 19.322C10.436 19.6266 10.0134 19.8878 9.56631 20.1008C9.18694 20.2816 8.78761 20.4147 8.12039 20.6371L4.30097 21.9102C3.67281 22.1196 2.98026 21.9561 2.51206 21.4879C2.04386 21.0197 1.88037 20.3272 2.08976 19.699L3.36286 15.8797C3.58526 15.2124 3.71835 14.8131 3.89916 14.4337C4.11224 13.9866 4.37339 13.564 4.67799 13.1735C4.93647 12.8421 5.23413 12.5445 5.73151 12.0472L14.4902 3.28848ZM19.6237 4.37634C18.5065 3.25917 16.6952 3.25917 15.578 4.37634L14.9962 4.95822C15.0279 5.11217 15.0787 5.31328 15.1593 5.54544C15.3567 6.11465 15.73 6.86272 16.4336 7.56638C17.1373 8.27004 17.8853 8.64325 18.4546 8.84073C18.6867 8.92128 18.8878 8.9721 19.0418 9.00384L19.6237 8.42196C20.7408 7.30479 20.7408 5.49351 19.6237 4.37634ZM17.8041 10.2415C17.0853 9.97313 16.1882 9.49664 15.3458 8.65424C14.5034 7.81183 14.0269 6.9147 13.7585 6.19592L6.8567 13.0977C6.31112 13.6433 6.08439 13.8719 5.89108 14.1197C5.6552 14.4221 5.45297 14.7493 5.28797 15.0956C5.15275 15.3793 5.04967 15.6843 4.80568 16.4163L3.9464 18.9941L5.00586 20.0536L7.5837 19.1943C8.31568 18.9503 8.62071 18.8472 8.90444 18.712C9.25066 18.547 9.57788 18.3448 9.8803 18.1089C10.1281 17.9156 10.3567 17.6889 10.9023 17.1433L17.8041 10.2415Z" fill="#161616"/>
</svg>
