<svg width="35" height="34" viewBox="0 0 35 34" fill="none" xmlns="http://www.w3.org/2000/svg">
<path d="M32.5 6.16667C32.5 20.434 20.934 32 6.66667 32C6.02297 32 5.38477 31.9765 4.75287 31.9302C4.0277 31.877 3.6651 31.8505 3.33505 31.6605C3.06168 31.5032 2.80243 31.2242 2.66542 30.94C2.5 30.597 2.5 30.1968 2.5 29.3967V24.7012C2.5 24.0282 2.5 23.6917 2.61075 23.4033C2.70858 23.1485 2.86748 22.9217 3.0735 22.7427C3.30672 22.54 3.62293 22.425 4.25535 22.195L9.60008 20.2515C10.3359 19.984 10.7038 19.8502 11.0528 19.8728C11.3606 19.8928 11.6568 19.998 11.9084 20.1763C12.1938 20.3785 12.3952 20.7142 12.798 21.3857L14.1667 23.6667C18.5832 21.6665 22.1635 18.0815 24.1667 13.6667L21.8857 12.298C21.2142 11.8952 20.8785 11.6938 20.6763 11.4084C20.498 11.1568 20.3928 10.8606 20.3728 10.5528C20.3502 10.2038 20.484 9.83588 20.7515 9.10008L22.695 3.75535C22.925 3.12293 23.04 2.80672 23.2427 2.5735C23.4217 2.36748 23.6485 2.20858 23.9033 2.11075C24.1917 2 24.5282 2 25.2012 2H29.8967C30.6968 2 31.097 2 31.44 2.16542C31.7242 2.30243 32.0032 2.56168 32.1605 2.83505C32.3505 3.16512 32.377 3.5277 32.4302 4.25288C32.4765 4.88477 32.5 5.52297 32.5 6.16667Z" stroke="#3A3A3A" stroke-width="4" stroke-linecap="round" stroke-linejoin="round"/>
</svg>
