<svg width="24" height="24" viewBox="0 0 24 24" fill="none" xmlns="http://www.w3.org/2000/svg">
<path d="M2 8C2 7.20435 2.31607 6.44129 2.87868 5.87868C3.44129 5.31607 4.20435 5 5 5H7C7.79565 5 8.55871 5.31607 9.12132 5.87868C9.68393 6.44129 10 7.20435 10 8V9C10 15 7.972 19 3 19C7 15.038 6 13 6 13H5C4.20435 13 3.44129 12.6839 2.87868 12.1213C2.31607 11.5587 2 10.7956 2 10V8Z" stroke="#161616" stroke-width="1.5" stroke-miterlimit="10" stroke-linejoin="round"/>
<path d="M14 8C14 7.20435 14.3161 6.44129 14.8787 5.87868C15.4413 5.31607 16.2044 5 17 5H19C19.7956 5 20.5587 5.31607 21.1213 5.87868C21.6839 6.44129 22 7.20435 22 8V9C22 15 19.972 19 15 19C19 15.038 18 13 18 13H17C16.2044 13 15.4413 12.6839 14.8787 12.1213C14.3161 11.5587 14 10.7956 14 10V8Z" stroke="#161616" stroke-width="1.5" stroke-miterlimit="10" stroke-linejoin="round"/>
</svg>
