<svg width="24" height="24" viewBox="0 0 24 24" fill="#FFFFFF" xmlns="http://www.w3.org/2000/svg">
<path fill-rule="evenodd" clip-rule="evenodd" d="M10.2027 3.37547C6.43211 3.37547 3.37547 6.4321 3.37547 10.2026C3.37547 13.9731 6.43211 17.0298 10.2027 17.0298C13.9732 17.0298 17.0299 13.9731 17.0299 10.2026C17.0299 6.4321 13.9732 3.37547 10.2027 3.37547ZM2 10.2026C2 5.67243 5.67247 2 10.2027 2C14.7329 2 18.4053 5.67243 18.4053 10.2026C18.4053 14.7328 14.7329 18.4052 10.2027 18.4052C5.67247 18.4052 2 14.7328 2 10.2026Z" fill="#FFFF"/>
<path fill-rule="evenodd" clip-rule="evenodd" d="M15.2272 15.2273C15.4958 14.9587 15.9312 14.9587 16.1998 15.2273L21.5137 20.5411C21.7823 20.8097 21.7823 21.2452 21.5137 21.5138C21.2451 21.7823 20.8096 21.7823 20.5411 21.5138L15.2272 16.1999C14.9586 15.9313 14.9586 15.4959 15.2272 15.2273Z" fill="#FFFF"/>
</svg>
