<svg width="24" height="24" viewBox="0 0 24 24" fill="none" xmlns="http://www.w3.org/2000/svg">
<path d="M9.64594 15.0504C9.46915 15.0504 9.29237 14.9852 9.1528 14.8457C8.38983 14.0828 7.97113 13.0687 7.97113 11.9988C7.97113 9.77533 9.7762 7.97047 12 7.97047C13.07 7.97047 14.0842 8.38912 14.8471 9.152C14.9774 9.28225 15.0518 9.45902 15.0518 9.64508C15.0518 9.83115 14.9774 10.0079 14.8471 10.1382L10.1391 14.8457C9.99951 14.9852 9.82272 15.0504 9.64594 15.0504ZM12 9.36598C10.5485 9.36598 9.3668 10.5475 9.3668 11.9988C9.3668 12.464 9.48776 12.9106 9.71107 13.3013L13.3026 9.71021C12.9118 9.48693 12.4652 9.36598 12 9.36598Z" fill="#161616"/>
<path d="M6.04516 18.0554C5.88698 18.0554 5.7195 17.9995 5.58924 17.8879C4.59366 17.0413 3.70043 15.9993 2.93746 14.7899C1.95118 13.2548 1.95118 10.7522 2.93746 9.20782C5.20776 5.65392 8.51085 3.60717 12 3.60717C14.047 3.60717 16.0661 4.31423 17.8339 5.64462C18.141 5.8772 18.2061 6.31446 17.9735 6.62148C17.7409 6.92849 17.3036 6.99361 16.9965 6.76103C15.4706 5.6074 13.74 5.00268 12 5.00268C8.99468 5.00268 6.1196 6.80754 4.10983 9.9614C3.41199 11.0499 3.41199 12.9478 4.10983 14.0363C4.80766 15.1248 5.60785 16.0644 6.49178 16.8273C6.78021 17.0785 6.81743 17.5158 6.56621 17.8135C6.43595 17.9716 6.24055 18.0554 6.04516 18.0554Z" fill="#161616"/>
<path d="M12 20.3905C10.7625 20.3905 9.55293 20.1393 8.38987 19.6462C8.0363 19.4974 7.86882 19.088 8.01769 18.7345C8.16657 18.381 8.57596 18.2135 8.92953 18.3624C9.91581 18.781 10.9486 18.995 11.9907 18.995C14.9961 18.995 17.8711 17.1901 19.8809 14.0363C20.5788 12.9478 20.5788 11.0499 19.8809 9.96139C19.5925 9.50552 19.2761 9.06826 18.9412 8.65891C18.6992 8.3612 18.7458 7.92394 19.0435 7.67275C19.3413 7.43086 19.7786 7.46807 20.0298 7.77509C20.3927 8.22165 20.7462 8.70543 21.0626 9.20781C22.0489 10.7429 22.0489 13.2455 21.0626 14.7899C18.7923 18.3438 15.4892 20.3905 12 20.3905Z" fill="#161616"/>
<path d="M12.642 15.9714C12.3164 15.9714 12.0186 15.7388 11.9535 15.4039C11.8791 15.0224 12.1303 14.6596 12.5118 14.5945C13.5353 14.4084 14.3913 13.5525 14.5774 12.5291C14.6518 12.1477 15.0147 11.9058 15.3962 11.9709C15.7776 12.0454 16.0289 12.4082 15.9544 12.7896C15.6567 14.3991 14.3727 15.6737 12.7723 15.9714C12.7258 15.9621 12.6886 15.9714 12.642 15.9714Z" fill="#161616"/>
<path d="M2.69551 22C2.51873 22 2.34194 21.9349 2.20237 21.7953C1.93254 21.5255 1.93254 21.079 2.20237 20.8092L9.15282 13.8595C9.42265 13.5897 9.86927 13.5897 10.1391 13.8595C10.4089 14.1293 10.4089 14.5759 10.1391 14.8457L3.18865 21.7953C3.04908 21.9349 2.8723 22 2.69551 22Z" fill="#161616"/>
<path d="M14.3541 10.3428C14.1773 10.3428 14.0005 10.2777 13.8609 10.1382C13.5911 9.86836 13.5911 9.42179 13.8609 9.15199L20.8114 2.20235C21.0812 1.93255 21.5278 1.93255 21.7977 2.20235C22.0675 2.47215 22.0675 2.91871 21.7977 3.18851L14.8471 10.1382C14.7076 10.2777 14.5308 10.3428 14.3541 10.3428Z" fill="#161616"/>
</svg>
