<svg width="24" height="24" viewBox="0 0 24 24" fill="none" xmlns="http://www.w3.org/2000/svg">
<path fill-rule="evenodd" clip-rule="evenodd" d="M18.86 3.46897C17.9366 3.63323 16.6886 4.0473 14.9241 4.63544L6.24376 7.52878C5.25704 7.85767 4.58135 8.08431 4.10974 8.31078C3.64152 8.53562 3.51693 8.69617 3.46896 8.81207C3.42851 8.90978 3.40406 9.01336 3.39653 9.11884C3.38761 9.24395 3.42724 9.44326 3.74547 9.85374C4.066 10.2672 4.569 10.7721 5.30446 11.5075L5.56737 11.7704C5.57995 11.783 5.59238 11.7954 5.60468 11.8077C5.80525 12.008 5.96858 12.1712 6.09617 12.359C6.346 12.7269 6.48781 13.1574 6.50553 13.6018C6.51458 13.8287 6.48019 14.0569 6.43796 14.3373C6.43537 14.3545 6.43275 14.3718 6.43011 14.3894C6.33781 15.0044 6.27352 15.4347 6.24372 15.7703C6.21408 16.104 6.22484 16.2873 6.25429 16.4155C6.40895 17.0886 6.92995 17.617 7.60086 17.7811C7.7286 17.8123 7.91173 17.8257 8.24586 17.8008C8.58185 17.7757 9.01308 17.7175 9.62931 17.6338L9.69576 17.6248C9.71391 17.6224 9.73186 17.6199 9.7496 17.6175C10.0395 17.578 10.2757 17.5458 10.51 17.5599C10.9323 17.5854 11.3402 17.723 11.6917 17.9584C11.8867 18.0891 12.0551 18.2577 12.2619 18.4647C12.2746 18.4773 12.2874 18.4902 12.3003 18.5031L12.5341 18.7369C13.2499 19.4526 13.7412 19.9422 14.1436 20.256C14.5434 20.5679 14.7383 20.61 14.8591 20.6041C14.9794 20.5982 15.0976 20.5703 15.2078 20.5218C15.3186 20.473 15.474 20.3483 15.6922 19.8905C15.9117 19.4298 16.1322 18.7723 16.4523 17.8119L19.3645 9.07564C19.9527 7.31123 20.3668 6.06322 20.531 5.1399C20.6962 4.21154 20.563 3.85198 20.3555 3.64449C20.148 3.43699 19.7884 3.30382 18.86 3.46897ZM18.6156 2.09517C19.659 1.90956 20.6302 1.94582 21.3422 2.6578C22.0542 3.36979 22.0904 4.34092 21.9048 5.3843C21.7205 6.42058 21.272 7.76592 20.7082 9.45721L17.761 18.2984C17.4597 19.2024 17.2129 19.9429 16.9518 20.4907C16.6851 21.0505 16.342 21.5472 15.7699 21.7989C15.5036 21.9161 15.2181 21.9835 14.9276 21.9978C14.3032 22.0284 13.7742 21.7376 13.2853 21.3562C12.8068 20.983 12.2549 20.431 11.5811 19.7573L11.3137 19.4898C11.0494 19.2255 10.9819 19.1625 10.9151 19.1177C10.7696 19.0203 10.6008 18.9633 10.4259 18.9528C10.3456 18.9479 10.2538 18.9573 9.88341 19.0075L9.79463 19.0196C9.20593 19.0995 8.7328 19.1637 8.34969 19.1923C7.95988 19.2213 7.60664 19.219 7.26927 19.1365C6.08605 18.847 5.16715 17.9151 4.89436 16.728C4.81658 16.3895 4.81924 16.0362 4.85382 15.6469C4.8878 15.2643 4.95867 14.7921 5.04685 14.2047L5.0502 14.1823C5.10397 13.8241 5.11437 13.7351 5.11127 13.6574C5.10394 13.4734 5.04524 13.2953 4.94183 13.143C4.89812 13.0786 4.83686 13.0132 4.58072 12.7571L4.28314 12.4595C3.59088 11.7673 3.02386 11.2004 2.64268 10.7087C2.25284 10.2058 1.95894 9.661 2.0047 9.01956C2.02288 8.76472 2.08196 8.51446 2.17967 8.2784C2.42562 7.68422 2.93213 7.32836 3.5057 7.05292C4.06654 6.7836 4.82726 6.53006 5.75601 6.22051L14.5426 3.29175C16.2339 2.72797 17.5793 2.27951 18.6156 2.09517Z" fill="#161616"/>
<path fill-rule="evenodd" clip-rule="evenodd" d="M20.8658 3.13428C21.1382 3.40674 21.1382 3.84849 20.8658 4.12095L6.91209 18.0747C6.63963 18.3471 6.19788 18.3471 5.92542 18.0747C5.65295 17.8022 5.65295 17.3604 5.92542 17.088L19.8791 3.13428C20.1516 2.86182 20.5933 2.86182 20.8658 3.13428Z" fill="#161616"/>
</svg>
