<svg width="24" height="24" viewBox="0 0 24 24" fill="none" xmlns="http://www.w3.org/2000/svg">
<path fill-rule="evenodd" clip-rule="evenodd" d="M11.1085 5.20563C11.1084 5.20579 11.1085 5.20547 11.1085 5.20563L9.64342 8.13572C9.4873 8.45309 9.22655 8.72427 8.95875 8.92283C8.69017 9.12197 8.35643 9.29115 8.013 9.34946L8.01081 9.34984L5.35278 9.79145C5.35268 9.79146 5.35289 9.79143 5.35278 9.79145C4.61145 9.91507 4.36995 10.207 4.31417 10.3817C4.25818 10.5571 4.28615 10.9355 4.81698 11.4663L6.88364 13.533C7.15231 13.8017 7.33201 14.1609 7.43111 14.5071C7.53029 14.8536 7.56738 15.252 7.4849 15.62L7.48398 15.6241L6.8923 18.1824C6.67194 19.1347 6.89483 19.4823 7.00802 19.5649C7.12169 19.6478 7.522 19.7541 8.3644 19.2541L10.8607 17.7764C11.2074 17.5747 11.6224 17.4916 12.0032 17.4916C12.3833 17.4916 12.7985 17.5745 13.1434 17.7788C13.1433 17.7787 13.1435 17.7788 13.1434 17.7788L15.6346 19.2535C15.6344 19.2534 15.6347 19.2536 15.6346 19.2535C16.4838 19.755 16.8838 19.6492 16.9954 19.5678C17.106 19.4872 17.3288 19.1417 17.1077 18.182L16.5152 15.62C16.4327 15.252 16.4698 14.8536 16.569 14.5071C16.6681 14.1609 16.8478 13.8017 17.1164 13.533L19.1831 11.4663L19.1846 11.4648C19.7189 10.9341 19.7453 10.5567 19.6894 10.3829C19.6331 10.2077 19.3896 9.91523 18.6476 9.7915C18.6475 9.79148 18.6477 9.79152 18.6476 9.7915L15.9893 9.34983C15.6423 9.29201 15.306 9.12347 15.0352 8.9237C14.7656 8.72475 14.5046 8.45331 14.3483 8.13577L12.8821 5.20329C12.5314 4.49827 12.1751 4.3562 11.999 4.3562C11.8218 4.3562 11.4632 4.50007 11.1085 5.20563ZM14.001 4.64607C13.56 3.7597 12.8706 3.1062 11.999 3.1062C11.1283 3.1062 10.4368 3.75858 9.9916 4.64427L8.52435 7.57878L8.52208 7.58337C8.47806 7.67325 8.37282 7.80116 8.21424 7.91874C8.05621 8.03591 7.9029 8.10004 7.80462 8.11695C7.80432 8.11701 7.80403 8.11706 7.80373 8.11711L5.1476 8.5584C4.18918 8.71814 3.38427 9.18456 3.1234 10.0015C2.86272 10.8178 3.24726 11.6644 3.93309 12.3502L5.99976 14.4169C6.0811 14.4982 6.17223 14.6515 6.22938 14.8511C6.28618 15.0496 6.29098 15.2295 6.26553 15.345C6.26541 15.3455 6.26529 15.346 6.26517 15.3466L5.67446 17.9007C5.67445 17.9007 5.67446 17.9007 5.67446 17.9007C5.42817 18.9651 5.5136 20.0218 6.27122 20.5746C7.02838 21.1271 8.06141 20.8875 9.00234 20.3291L11.4893 18.8568C11.4899 18.8565 11.4904 18.8562 11.4909 18.8559C11.6028 18.7914 11.787 18.7416 12.0032 18.7416C12.2209 18.7416 12.4014 18.7921 12.5064 18.8543L14.9983 20.3294C15.9404 20.8859 16.9747 21.1298 17.7318 20.5779C18.4899 20.0252 18.5712 18.9665 18.3257 17.9013L17.7349 15.3466C17.7348 15.346 17.7347 15.3455 17.7345 15.345C17.7091 15.2295 17.7139 15.0496 17.7707 14.8511C17.8278 14.6515 17.919 14.4982 18.0003 14.4169L20.0655 12.3517C20.0658 12.3514 20.066 12.3512 20.0663 12.3509C20.7565 11.6651 21.1422 10.8179 20.8794 10.0004C20.617 9.18394 19.8106 8.71809 18.8528 8.55845L16.1945 8.11679C16.1943 8.11677 16.1946 8.11681 16.1945 8.11679M14.001 4.64607C14.0009 4.64588 14.0011 4.64625 14.001 4.64607V4.64607Z" fill="#161616"/>
</svg>
