<svg width="24" height="24" viewBox="0 0 24 24" fill="none" xmlns="http://www.w3.org/2000/svg">
<path fill-rule="evenodd" clip-rule="evenodd" d="M3 6.57753C3 6.22749 3.28332 5.94373 3.63281 5.94373H20.3672C20.7167 5.94373 21 6.22749 21 6.57753C21 6.92757 20.7167 7.21133 20.3672 7.21133H3.63281C3.28332 7.21133 3 6.92757 3 6.57753Z" fill="#161616"/>
<path fill-rule="evenodd" clip-rule="evenodd" d="M5.23141 8.40988C5.58013 8.38659 5.88166 8.65085 5.90491 9.00011L6.35766 15.802C6.44593 17.128 6.50928 18.0608 6.64931 18.7648C6.78579 19.4509 6.9799 19.8324 7.27141 20.1055C7.56292 20.3787 7.9558 20.5473 8.64842 20.638C9.3591 20.7311 10.2925 20.7324 11.6194 20.7324H12.3807C13.7075 20.7324 14.641 20.7311 15.3516 20.638C16.0443 20.5473 16.4371 20.3787 16.7287 20.1055C17.0202 19.8324 17.2143 19.4509 17.3508 18.7648C17.4908 18.0608 17.5541 17.128 17.6424 15.802L18.0952 9.00011C18.1184 8.65085 18.4199 8.38659 18.7687 8.40988C19.1174 8.43316 19.3812 8.73517 19.358 9.08443L18.9022 15.9316C18.8177 17.2019 18.7501 18.2177 18.592 19.0125C18.4285 19.8346 18.1533 20.5065 17.5933 21.0312C17.0333 21.5559 16.3457 21.7862 15.5158 21.8949C14.7135 22 13.6971 22 12.4259 22H11.5742C10.303 22 9.28658 22 8.48427 21.8949C7.65441 21.7862 6.96674 21.5559 6.40676 21.0312C5.84678 20.5065 5.5716 19.8346 5.40808 19.0125C5.25 18.2177 5.1824 17.2019 5.09786 15.9316L4.6421 9.08443C4.61885 8.73517 4.88269 8.43316 5.23141 8.40988Z" fill="#161616"/>
<path fill-rule="evenodd" clip-rule="evenodd" d="M12 3.2676C10.9907 3.2676 10.1304 3.91337 9.81156 4.81684C9.69509 5.14687 9.33355 5.31985 9.00404 5.2032C8.67453 5.08655 8.50182 4.72445 8.61828 4.39442C9.11025 3.00033 10.4377 2 12 2C13.5623 2 14.8897 3.00033 15.3817 4.39442C15.4982 4.72445 15.3255 5.08655 14.996 5.2032C14.6664 5.31985 14.3049 5.14687 14.1884 4.81684C13.8696 3.91337 13.0093 3.2676 12 3.2676Z" fill="#161616"/>
</svg>
