<svg width="24" height="24" viewBox="0 0 24 24" fill="none" xmlns="http://www.w3.org/2000/svg">
<path d="M9.56098 22H6.63415C6.23415 22 5.90244 21.6837 5.90244 21.3023V19.2093H2.73171C2.33171 19.2093 2 18.893 2 18.5116V5.48837C2 5.34884 2.03903 5.21859 2.12683 5.09766L4.07805 2.30696C4.21464 2.11162 4.43902 2 4.68293 2H21.2683C21.6683 2 22 2.31628 22 2.69767V13.8605C22 14.0465 21.922 14.2233 21.7854 14.3535L16.9073 19.0047C16.7707 19.1349 16.5854 19.2093 16.3902 19.2093H11.9024L10.1658 21.693C10.0293 21.8791 9.80488 22 9.56098 22ZM7.36585 20.6047H9.17074L10.9073 18.1209C11.0439 17.9256 11.2683 17.814 11.5122 17.814H16.0878L20.5366 13.5721V3.39535H5.07316L3.46341 5.70234V17.814H6.63415C7.03415 17.814 7.36585 18.1302 7.36585 18.5116V20.6047Z" fill="#161616"/>
<path d="M11.0244 13.6279H9.0732C8.6732 13.6279 8.34149 13.3116 8.34149 12.9302V7.3488C8.34149 6.9674 8.6732 6.65112 9.0732 6.65112H11.0244C11.4244 6.65112 11.7561 6.9674 11.7561 7.3488V12.9302C11.7561 13.3116 11.4244 13.6279 11.0244 13.6279ZM9.80491 12.2325H10.2927V8.04647H9.80491V12.2325Z" fill="#161616"/>
<path d="M15.9024 13.6279H13.9512C13.5512 13.6279 13.2195 13.3116 13.2195 12.9302V7.3488C13.2195 6.9674 13.5512 6.65112 13.9512 6.65112H15.9024C16.3024 6.65112 16.6341 6.9674 16.6341 7.3488V12.9302C16.6341 13.3116 16.3024 13.6279 15.9024 13.6279ZM14.6829 12.2325H15.1707V8.04647H14.6829V12.2325Z" fill="#161616"/>
</svg>
