<svg width="22" height="22" viewBox="0 0 22 22" fill="none" xmlns="http://www.w3.org/2000/svg">
<rect x="0.5" y="0.5" width="21" height="21" rx="5.5" stroke="#2A3D6E"/>
<path d="M13.6979 6.59145C13.6979 6.52379 13.671 6.4589 13.6231 6.41105C13.5753 6.36321 13.5104 6.33633 13.4427 6.33633H12.1666C11.5241 6.30433 10.895 6.52787 10.4168 6.95811C9.9386 7.38835 9.65018 7.9903 9.61456 8.63245V10.0101H8.33852C8.27084 10.0101 8.20592 10.037 8.15806 10.0848C8.1102 10.1327 8.08331 10.1976 8.08331 10.2652V11.5919C8.08331 11.6596 8.1102 11.7244 8.15806 11.7723C8.20592 11.8201 8.27084 11.847 8.33852 11.847H9.61456V15.2657C9.61456 15.3334 9.64145 15.3982 9.68931 15.4461C9.73717 15.4939 9.80209 15.5208 9.86977 15.5208H11.401C11.4687 15.5208 11.5336 15.4939 11.5815 15.4461C11.6293 15.3982 11.6562 15.3334 11.6562 15.2657V11.847H12.9935C13.0503 11.8478 13.1057 11.8297 13.151 11.7955C13.1963 11.7613 13.2289 11.713 13.2436 11.6582L13.6111 10.3316C13.6213 10.2939 13.6226 10.2544 13.6151 10.2161C13.6076 10.1777 13.5914 10.1417 13.5677 10.1106C13.544 10.0796 13.5135 10.0544 13.4786 10.0369C13.4437 10.0195 13.4052 10.0103 13.3661 10.0101H11.6562V8.63245C11.6689 8.50615 11.7283 8.38912 11.8226 8.3042C11.917 8.21929 12.0397 8.17259 12.1666 8.17323H13.4427C13.5104 8.17323 13.5753 8.14635 13.6231 8.0985C13.671 8.05066 13.6979 7.98577 13.6979 7.9181V6.59145Z" fill="#2A3D6E"/>
</svg>
