<svg width="22" height="22" viewBox="0 0 22 22" fill="none" xmlns="http://www.w3.org/2000/svg">
<rect x="0.5" y="0.5" width="21" height="21" rx="5.5" stroke="#2A3D6E"/>
<path d="M8.68169 15.8125H6.77692V9.67853H8.68169V15.8125ZM7.72816 8.84181C7.11916 8.84181 6.625 8.33716 6.625 7.72816C6.625 7.43558 6.74123 7.15499 6.94811 6.94811C7.15499 6.74123 7.43558 6.625 7.72816 6.625C8.02073 6.625 8.30132 6.74123 8.50821 6.94811C8.71509 7.15499 8.83131 7.43558 8.83131 7.72816C8.83131 8.33716 8.33716 8.84181 7.72816 8.84181ZM15.8105 15.8125H13.91V12.8266C13.91 12.1149 13.8956 11.2023 12.9198 11.2023C11.9295 11.2023 11.7775 11.9754 11.7775 12.7754V15.8125H9.87475V9.67853H11.7014V10.5152H11.728C11.9823 10.0332 12.6034 9.52464 13.5301 9.52464C15.4578 9.52464 15.8122 10.7942 15.8122 12.443V15.8125H15.8105Z" fill="#2A3D6E"/>
</svg>
